<svg width="21" height="20" viewBox="0 0 21 20" fill="none" xmlns="http://www.w3.org/2000/svg">
<path d="M10.1553 0.0849697C7.46197 0.0849697 4.87892 1.12536 2.97442 2.97728C1.06993 4.82921 0 7.34095 0 9.95997C0.000298652 12.3125 0.864324 14.5877 2.4365 16.3759C4.00868 18.164 6.18571 19.3476 8.57561 19.7135V12.8127H5.99841V9.9585H8.57561V7.78161C8.57561 5.30774 10.0921 3.93987 12.4121 3.93987C13.1737 3.95023 13.9335 4.01479 14.6854 4.13299V6.56297H13.405C12.1428 6.56297 11.7501 7.32516 11.7501 8.10492V9.9585H14.5665L14.1151 12.8127H11.7486V19.7121C14.1385 19.3461 16.3155 18.1625 17.8877 16.3744C19.4599 14.5863 20.3239 12.3111 20.3242 9.9585C20.324 8.66071 20.0607 7.37569 19.5494 6.17691C19.0381 4.97813 18.2889 3.8891 17.3444 2.97211C16.4 2.05511 15.279 1.32814 14.0454 0.832738C12.8118 0.337339 11.49 0.0832393 10.1553 0.0849697Z" fill="#38B6FF"/>
</svg>
