<svg width="21" height="20" viewBox="0 0 21 20" fill="none" xmlns="http://www.w3.org/2000/svg">
<path d="M10.6924 11.9644C11.8698 11.9644 12.8243 11.0363 12.8243 9.89138C12.8243 8.74648 11.8698 7.81836 10.6924 7.81836C9.51502 7.81836 8.56055 8.74648 8.56055 9.89138C8.56055 11.0363 9.51502 11.9644 10.6924 11.9644Z" fill="#38B6FF"/>
<path d="M15.6787 6.22961C15.5762 5.95942 15.4127 5.71497 15.2003 5.51422C14.9937 5.30785 14.7424 5.14893 14.4646 5.04901C14.0843 4.91255 13.6829 4.8403 13.2775 4.8354C12.6035 4.80614 12.4004 4.79883 10.6943 4.79883C8.98825 4.79883 8.78363 4.79883 8.10962 4.8354C7.70431 4.8403 7.30284 4.91255 6.92257 5.04901C6.64498 5.14928 6.39371 5.30816 6.18687 5.51422C5.97546 5.71575 5.81215 5.95996 5.70845 6.22961C5.56813 6.59939 5.49383 6.98977 5.48878 7.38389C5.45869 8.0393 5.45117 8.23679 5.45117 9.89725C5.45117 11.5577 5.45117 11.7538 5.48878 12.4092C5.49383 12.8033 5.56813 13.1937 5.70845 13.5634C5.81215 13.8331 5.97546 14.0773 6.18687 14.2788C6.39371 14.4849 6.64498 14.6438 6.92257 14.744C7.30284 14.8805 7.70431 14.9527 8.10962 14.9576C8.78363 14.9869 8.98675 14.9942 10.6943 14.9942C12.4019 14.9942 12.6035 14.9869 13.2775 14.9576C13.6829 14.9527 14.0843 14.8805 14.4646 14.744C14.7424 14.6441 14.9937 14.4852 15.2003 14.2788C15.4127 14.0781 15.5762 13.8336 15.6787 13.5634C15.8191 13.1937 15.8933 12.8033 15.8984 12.4092C15.93 11.7538 15.936 11.5562 15.936 9.89725C15.936 8.23825 15.936 8.0393 15.8984 7.38389C15.8933 6.98977 15.8191 6.59939 15.6787 6.22961ZM10.6943 13.0894C10.2626 13.0891 9.83518 13.0059 9.43655 12.8446C9.03793 12.6834 8.67591 12.4473 8.37125 12.1498C8.0666 11.8524 7.82528 11.4994 7.66112 11.1111C7.49695 10.7228 7.41316 10.3068 7.41454 9.88702C7.41454 9.04001 7.76056 8.22769 8.37649 7.62876C8.99241 7.02984 9.82779 6.69338 10.6988 6.69338C11.1301 6.69338 11.5571 6.77599 11.9555 6.9365C12.3539 7.09701 12.7158 7.33228 13.0207 7.62885C13.3255 7.92543 13.5673 8.2775 13.7322 8.66496C13.8971 9.05243 13.9819 9.46769 13.9817 9.88702C13.9825 10.3071 13.898 10.7232 13.7331 11.1114C13.5682 11.4997 13.3261 11.8525 13.0207 12.1496C12.7153 12.4467 12.3526 12.6822 11.9534 12.8428C11.5542 13.0033 11.1263 13.0856 10.6943 13.085V13.0894ZM14.1065 7.3239C13.903 7.3239 13.7079 7.24529 13.564 7.10537C13.4201 6.96545 13.3392 6.77568 13.3392 6.5778C13.3392 6.37991 13.4201 6.19014 13.564 6.05022C13.7079 5.9103 13.903 5.83169 14.1065 5.83169C14.31 5.83169 14.5052 5.9103 14.6491 6.05022C14.793 6.19014 14.8738 6.37991 14.8738 6.5778C14.8726 6.77491 14.7913 6.96357 14.6475 7.10255C14.5037 7.24152 14.3092 7.31951 14.1065 7.31951V7.3239Z" fill="#38B6FF"/>
<path d="M10.6939 0.0175781C8.00054 0.0175781 5.41749 1.05797 3.513 2.90989C1.6085 4.76181 0.538574 7.27356 0.538574 9.89257C0.538973 12.5115 1.60903 15.023 3.51344 16.8748C5.41784 18.7266 8.00066 19.7672 10.6939 19.7676C13.3871 19.7672 15.9699 18.7266 17.8744 16.8748C19.7788 15.023 20.8488 12.5115 20.8492 9.89257C20.8492 7.27356 19.7793 4.76181 17.8748 2.90989C15.9703 1.05797 13.3873 0.0175781 10.6939 0.0175781ZM17.0489 12.4528C17.0375 12.9685 16.9358 13.4786 16.748 13.9611C16.5886 14.3766 16.3369 14.7527 16.0108 15.0627C15.6919 15.379 15.3057 15.6236 14.8794 15.7795C14.3825 15.9613 13.8576 16.0602 13.3268 16.0721C12.6452 16.1028 12.4241 16.1102 10.6909 16.1102C8.95772 16.1102 8.73505 16.1102 8.05351 16.0721C7.52319 16.0604 6.99874 15.9615 6.50237 15.7795C6.07537 15.624 5.68867 15.3793 5.3695 15.0627C5.04387 14.7523 4.79222 14.3763 4.63229 13.9611C4.44521 13.4784 4.34347 12.9684 4.3314 12.4528C4.2998 11.7886 4.29378 11.575 4.29378 9.88965C4.29378 8.20431 4.29378 7.98779 4.3314 7.32507C4.34347 6.80939 4.44521 6.29943 4.63229 5.81676C4.79222 5.40155 5.04387 5.02551 5.3695 4.71515C5.68867 4.39851 6.07537 4.1538 6.50237 3.99829C6.99874 3.81637 7.52319 3.71745 8.05351 3.7057C8.73655 3.67498 8.95621 3.66913 10.6909 3.66913C12.4256 3.66913 12.6467 3.66913 13.3268 3.7057C13.8576 3.71762 14.3825 3.81654 14.8794 3.99829C15.3057 4.1542 15.6919 4.39887 16.0108 4.71515C16.3369 5.02511 16.5886 5.40127 16.748 5.81676C16.9358 6.29923 17.0375 6.80932 17.0489 7.32507C17.0805 7.98925 17.088 8.20285 17.088 9.88965C17.088 11.5764 17.0805 11.7886 17.0429 12.4557L17.0489 12.4528Z" fill="#38B6FF"/>
</svg>
