<svg xmlns="http://www.w3.org/2000/svg" width="21" height="20" fill="none" viewBox="0 0 21 20"><path fill="#38B6FF" d="M10.3028 0.0175781C7.60943 0.0175781 5.02638 1.05797 3.12188 2.90989C1.21739 4.76181 0.147461 7.27356 0.147461 9.89258C0.14786 12.5115 1.21792 15.023 3.12232 16.8748C5.02673 18.7266 7.60955 19.7672 10.3028 19.7676C12.996 19.7672 15.5788 18.7266 17.4833 16.8748C19.3877 15.023 20.4577 12.5115 20.4581 9.89258C20.4581 7.27356 19.3882 4.76181 17.4837 2.90989C15.5792 1.05797 12.9962 0.0175781 10.3028 0.0175781ZM6.95077 15.288C6.22862 15.2792 5.50647 15.288 4.78431 15.288C4.66846 15.288 4.63386 15.2602 4.63386 15.1417C4.63386 12.6381 4.63386 10.1344 4.63386 7.63082C4.63386 7.52695 4.65943 7.48453 4.77227 7.49185C5.50496 7.49185 6.23915 7.49185 6.97184 7.49185C7.11176 7.49185 7.13132 7.54306 7.13132 7.66156C7.13132 8.908 7.13132 10.1544 7.13132 11.4009C7.13132 12.6371 7.13132 13.8733 7.13132 15.1095C7.14335 15.247 7.10123 15.2894 6.95529 15.288H6.95077ZM5.88409 6.42097C5.50346 6.4183 5.13913 6.27038 4.86955 6.00906C4.59998 5.74775 4.44672 5.39395 4.44279 5.02383C4.44318 4.6512 4.59538 4.2939 4.86607 4.03013C5.13676 3.76637 5.5039 3.61762 5.88711 3.61646C6.26784 3.61799 6.63262 3.76534 6.9024 4.02658C7.17218 4.28782 7.32524 4.64192 7.3284 5.01213C7.32841 5.38426 7.17701 5.74127 6.90725 6.00522C6.63749 6.26918 6.27129 6.41865 5.8886 6.42097H5.88409ZM16.4772 15.127C16.4772 15.2543 16.4396 15.288 16.3102 15.2865C15.5881 15.2807 14.8654 15.2807 14.1423 15.2865C14.0159 15.2865 13.9918 15.2499 13.9918 15.1329C13.9918 13.8357 13.9918 12.5376 13.9918 11.2385C13.9992 10.913 13.9602 10.5881 13.876 10.2729C13.7029 9.68776 13.2742 9.39516 12.6468 9.42588C11.7892 9.46977 11.3439 9.88233 11.2341 10.7294C11.2087 10.9313 11.1962 11.1346 11.1965 11.338C11.1965 12.6005 11.1965 13.8631 11.1965 15.1256C11.1965 15.2514 11.1649 15.288 11.0325 15.2865C10.3043 15.2865 9.57612 15.2865 8.84795 15.2865C8.7321 15.2865 8.6975 15.2573 8.6975 15.1402C8.6975 12.6415 8.6975 10.1423 8.6975 7.64254C8.6975 7.51965 8.73962 7.49624 8.85998 7.49624C9.55004 7.49624 10.2411 7.49624 10.9332 7.49624C11.0611 7.49624 11.0942 7.53573 11.0836 7.65277C11.0836 7.94536 11.0836 8.24966 11.0836 8.54957C11.2506 8.3667 11.3845 8.18237 11.559 8.02437C11.8074 7.78942 12.1012 7.60479 12.4236 7.48122C12.7459 7.35766 13.0903 7.29762 13.4367 7.30458C13.8349 7.3003 14.2318 7.34953 14.6162 7.45088C15.4978 7.69958 16.0108 8.28917 16.2546 9.12598C16.4178 9.75296 16.4912 10.3989 16.4727 11.0454C16.4848 12.3986 16.4712 13.7621 16.4817 15.127H16.4772Z"/></svg>