<svg xmlns="http://www.w3.org/2000/svg" width="21" height="20" fill="none" viewBox="0 0 21 20"><path fill="#38B6FF" d="M10.8533 1.00953e-06C9.5183 8.81504e-07 8.19638 0.255755 6.96308 0.752662C5.72977 1.24957 4.60923 1.97789 3.66546 2.89601C2.72169 3.81414 1.9732 4.90406 1.46273 6.10355C0.952267 7.30303 0.689838 8.58856 0.690431 9.8867C0.689829 11.8749 1.30569 13.8171 2.45763 15.4597C3.60957 17.1023 5.24406 18.3691 7.14771 19.0946C7.05594 18.3134 6.98071 17.1093 7.18081 16.2564C7.36586 15.4825 8.36936 11.3423 8.36936 11.3423C8.1652 10.8804 8.0627 10.3821 8.06846 9.87937C8.06846 8.50565 8.88841 7.48013 9.90845 7.48013C10.7781 7.48013 11.1963 8.11506 11.1963 8.87141C11.1963 9.717 10.6442 10.9868 10.3523 12.166C10.1086 13.1506 10.8623 13.9552 11.8568 13.9552C13.6622 13.9552 15.0523 12.1002 15.0523 9.43318C15.0523 7.06611 13.3041 5.41443 10.8036 5.41443C7.90898 5.41443 6.21041 7.52108 6.21041 9.7009C6.21041 10.5465 6.54591 11.4565 6.96265 11.9539C6.99978 11.9923 7.02554 12.0398 7.03719 12.0913C7.04884 12.1428 7.04596 12.1964 7.02885 12.2465C6.95363 12.5551 6.77761 13.231 6.74451 13.3686C6.70238 13.547 6.59406 13.588 6.40148 13.4987C5.13018 12.9209 4.33581 11.1244 4.33581 9.66725C4.33581 6.5526 6.66176 3.68959 11.0534 3.68959C14.5739 3.68959 17.3181 6.12981 17.3181 9.39514C17.3181 12.8024 15.1095 15.5396 12.0524 15.5396C11.0233 15.5396 10.0529 15.0188 9.72791 14.4014C9.72791 14.4014 9.21639 16.2886 9.09152 16.7524C8.86584 17.6141 8.24599 18.6879 7.82774 19.3462C8.8025 19.6381 9.81679 19.786 10.8367 19.7851C13.5325 19.7851 16.1178 18.7438 18.024 16.8902C19.9302 15.0367 21.0011 12.5227 21.0011 9.90132C21.0062 8.60249 20.7475 7.31545 20.2398 6.1141C19.7321 4.91275 18.9853 3.82075 18.0425 2.90076C17.0996 1.98078 15.9791 1.25094 14.7454 0.753145C13.5117 0.255349 12.189 -0.000586597 10.8533 1.00953e-06Z"/></svg>