<svg xmlns="http://www.w3.org/2000/svg" width="21" height="20" fill="none" viewBox="0 0 21 20"><path fill="#38B6FF" fill-rule="evenodd" d="M10.2317 0.0175799C8.89805 0.0168112 7.57733 0.271472 6.34492 0.767027C5.11252 1.26258 3.99256 1.98932 3.049 2.90575C2.10543 3.82219 1.35673 4.91037 0.845644 6.10816C0.334561 7.30596 0.0711026 8.58992 0.0703125 9.88672C0.0707114 12.5056 1.14077 15.0171 3.04518 16.869C4.94958 18.7208 7.5324 19.7613 10.2256 19.7617C12.9189 19.7613 15.5017 18.7208 17.4061 16.869C19.3105 15.0171 20.3806 12.5056 20.381 9.88672C20.3794 7.26973 19.3096 4.76038 17.4065 2.9099C15.5035 1.05941 12.9229 0.0191302 10.2317 0.0175799ZM15.8449 7.78005C15.8449 7.89123 15.8525 8.00535 15.8525 8.118C15.8525 11.5838 13.1444 15.5791 8.17953 15.5791C6.71426 15.5802 5.27959 15.1714 4.0467 14.4014C4.25995 14.4254 4.47442 14.4376 4.6891 14.438C5.90322 14.4395 7.08266 14.0444 8.0381 13.3159C7.47577 13.3042 6.93114 13.1226 6.47982 12.7962C6.02849 12.4698 5.69288 12.0148 5.51958 11.4945C5.68667 11.5258 5.85644 11.5415 6.0266 11.5413C6.26647 11.5415 6.50529 11.5105 6.73673 11.4492C6.12646 11.3293 5.57762 11.0079 5.18329 10.5394C4.78897 10.0709 4.57344 9.48414 4.57327 8.87874C4.57248 8.86753 4.57248 8.85629 4.57327 8.84509C4.9477 9.04769 5.36662 9.16006 5.79492 9.17279C5.42456 8.93388 5.12081 8.60949 4.91079 8.22862C4.70077 7.84774 4.59102 7.42222 4.59132 6.99005C4.59138 6.52745 4.71752 6.07314 4.9569 5.67338C5.63389 6.48352 6.47855 7.14615 7.43601 7.61822C8.39348 8.09029 9.44235 8.36126 10.5145 8.41352C10.4677 8.21736 10.4444 8.01654 10.4453 7.81516C10.4453 7.11986 10.7293 6.45305 11.2349 5.9614C11.7406 5.46975 12.4263 5.19354 13.1413 5.19354C13.5104 5.19314 13.8756 5.26641 14.2144 5.40884C14.5532 5.55128 14.8582 5.75982 15.1107 6.02157C15.7147 5.90631 16.2938 5.69106 16.8228 5.38518C16.6216 5.99265 16.2003 6.50837 15.6373 6.83645C16.1715 6.77402 16.6932 6.63498 17.1854 6.42388C16.8246 6.94947 16.3707 7.40864 15.8449 7.78005Z" clip-rule="evenodd"/></svg>