<svg xmlns="http://www.w3.org/2000/svg" width="21" height="20" fill="none" viewBox="0 0 21 20"><path fill="#38B6FF" d="M9.41602 11.866L12.9335 9.89101L9.41602 7.91602V11.866Z"/><path fill="#38B6FF" d="M10.7706 0.0175781C8.07719 0.0175781 5.49415 1.05797 3.58966 2.90989C1.68516 4.76181 0.615234 7.27356 0.615234 9.89258C0.615633 12.5115 1.68569 15.023 3.5901 16.8748C5.4945 18.7266 8.07732 19.7672 10.7706 19.7676C13.4638 19.7672 16.0466 18.7266 17.951 16.8748C19.8554 15.023 20.9255 12.5115 20.9259 9.89258C20.9259 8.59577 20.6632 7.31166 20.1529 6.11357C19.6425 4.91548 18.8945 3.82687 17.9515 2.90989C17.0084 1.99292 15.8889 1.26552 14.6568 0.769257C13.4247 0.272992 12.1042 0.0175781 10.7706 0.0175781ZM17.2579 13.0613C17.1812 13.3423 17.0295 13.5985 16.8181 13.804C16.6067 14.0096 16.3432 14.1571 16.0543 14.2317C15.0012 14.5082 10.7645 14.5082 10.7645 14.5082C10.7645 14.5082 6.52938 14.5082 5.47323 14.2317C5.1855 14.1564 4.92334 14.0085 4.71331 13.803C4.50327 13.5974 4.35282 13.3416 4.27717 13.0613C3.99432 12.0373 3.99432 9.89258 3.99432 9.89258C3.99432 9.89258 3.99432 7.74933 4.27717 6.72233C4.35397 6.44342 4.50494 6.1891 4.7149 5.98494C4.92487 5.78077 5.18641 5.63397 5.47323 5.55928C6.52638 5.28424 10.7645 5.28424 10.7645 5.28424C10.7645 5.28424 14.9982 5.28424 16.0543 5.55928C16.3423 5.63325 16.6052 5.77969 16.8165 5.98386C17.0278 6.18804 17.1801 6.44274 17.2579 6.72233C17.5408 7.7464 17.5408 9.89258 17.5408 9.89258C17.5408 9.89258 17.5408 12.0343 17.2579 13.0613Z"/></svg>